<?xml version="1.0" standalone="no"?>
<!DOCTYPE svg PUBLIC "-//W3C//DTD SVG 20010904//EN"
 "http://www.w3.org/TR/2001/REC-SVG-20010904/DTD/svg10.dtd">
<svg version="1.0" xmlns="http://www.w3.org/2000/svg"
 width="400.000000pt" height="400.000000pt" viewBox="0 0 400.000000 400.000000"
 preserveAspectRatio="xMidYMid meet">

<g transform="translate(0.000000,400.000000) scale(0.100000,-0.100000)"
fill="#000000" stroke="none">
<path d="M1749 3935 c-355 -49 -677 -185 -964 -410 -90 -70 -257 -239 -326
-330 -217 -284 -347 -600 -395 -960 -19 -144 -14 -412 10 -550 72 -406 247
-752 525 -1038 698 -718 1798 -798 2596 -188 85 65 247 223 318 311 237 294
384 649 428 1030 14 129 7 390 -15 515 -71 405 -247 752 -525 1038 -317 326
-708 523 -1159 582 -136 18 -361 18 -493 0z m281 -1160 c34 -18 60 -62 60
-103 0 -26 -80 -172 -357 -650 -68 -118 -94 -142 -153 -142 -69 0 -126 59
-118 124 2 17 96 193 208 390 153 269 213 364 235 377 36 23 86 24 125 4z
m1307 -18 c31 -29 36 -40 36 -78 0 -39 -25 -87 -208 -405 -149 -261 -215 -365
-235 -377 -15 -10 -47 -17 -70 -17 -34 0 -48 6 -76 34 -28 28 -34 42 -34 76 0
43 -1 41 387 717 34 58 69 82 121 83 34 0 49 -6 79 -33z m-2126 -515 c24 -21
32 -39 36 -74 6 -50 27 -9 -365 -690 -55 -96 -70 -110 -129 -115 -39 -4 -53
-1 -77 18 -36 28 -58 81 -50 115 5 20 344 624 405 722 36 57 129 70 180 24z
m1269 13 c34 -18 60 -62 60 -102 0 -43 -406 -750 -445 -774 -60 -38 -140 -16
-169 45 -31 65 -47 29 244 536 83 146 157 271 163 279 27 32 100 40 147 16z"/>
</g>
</svg>
